# 3ds Max Wavefront OBJ Exporter v0.97b - (c)2007 guruware
# File Created: 11.08.2014 21:02:01

mtllib house-solid.mtl

#
# object Box001
#

v  -2.5917 0.0000 2.5917
v  -2.5917 0.0000 -2.5917
v  2.5917 0.0000 -2.5917
v  2.5917 0.0000 2.5917
v  -2.4606 5.0161 2.4606
v  2.4606 5.0161 2.4606
v  2.4606 5.0161 -2.4606
v  -2.4606 5.0161 -2.4606
# 8 vertices

vn 0.0000 -1.0000 -0.0000
vn 0.0000 1.0000 -0.0000
vn 0.0000 0.0261 0.9997
vn 0.9997 0.0261 -0.0000
vn 0.0000 0.0261 -0.9997
vn -0.9997 0.0261 -0.0000
# 6 vertex normals

vt 1.0000 0.0000 0.0000
vt 1.0000 1.0000 0.0000
vt 0.0000 1.0000 0.0000
vt 0.0000 0.0000 0.0000
# 4 texture coords

g Box001
usemtl wire_148177027
s 2
f 1/1/1 2/2/1 3/3/1 4/4/1 
s 4
f 5/4/2 6/1/2 7/2/2 8/3/2 
s 8
f 1/4/3 4/1/3 6/2/3 5/3/3 
s 16
f 4/4/4 3/1/4 7/2/4 6/3/4 
s 32
f 3/4/5 2/1/5 8/2/5 7/3/5 
s 64
f 2/4/6 1/1/6 5/2/6 8/3/6 
# 6 polygons

#
# object Line001
#

v  -2.4606 5.0161 -2.4606
v  2.4606 5.0161 -2.4606
v  2.4606 5.0161 2.4606
v  -2.4606 5.0161 -1.5091
v  -2.4606 5.0161 2.4606
v  -2.4606 5.0161 -0.0787
v  -0.0504 6.7465 -2.4016
v  -0.0504 6.7465 -1.5091
v  -0.0504 6.7465 -0.0787
v  -0.0504 6.7465 2.4016
v  -0.8673 6.1607 -0.0787
v  -2.3225 5.1154 -0.0791
v  -0.8673 6.1607 -1.5091
v  -2.3225 5.1154 -1.5091
v  -2.3225 6.2025 -0.0791
v  -2.3225 6.2024 -1.5091
v  -0.8673 6.2024 -0.0787
v  -0.8673 6.2024 -1.5091
# 18 vertices

vn 0.0000 -1.0000 -0.0000
vn -0.0000 -1.0000 -0.0000
vn 0.5674 0.8234 0.0000
vn 0.0000 0.0341 0.9994
vn -0.5832 0.8123 0.0002
vn -0.5787 0.8056 0.1270
vn -0.5646 0.7860 0.2519
vn -0.5832 0.8123 0.0000
vn -0.5828 0.8126 0.0000
vn -0.5831 0.8124 -0.0004
vn -0.5834 0.8122 -0.0001
vn -0.5834 0.8122 -0.0000
vn -0.5829 0.8125 -0.0002
vn 0.0000 0.0341 -0.9994
vn -0.5838 0.8119 -0.0000
vn -1.0000 0.0000 -0.0000
vn 1.0000 -0.0000 0.0000
vn 1.0000 0.0000 -0.0000
vn -1.0000 -0.0000 0.0000
vn -0.0000 -1.0000 0.0000
vn -0.0000 0.0000 1.0000
vn 0.0002 -0.0000 -1.0000
# 22 vertex normals

g Line001
usemtl wire_225088199
s 1
f 9//7 10//7 11//8 12//7 
f 11//8 13//7 14//8 12//7 
s 4
f 10//9 15//9 16//9 17//9 
f 10//9 17//9 18//9 11//9 
s off
f 13//10 11//10 18//10 
f 18//11 17//11 19//11 14//11 
f 19//12 19//12 20//12 20//12 
f 19//13 20//13 14//13 
f 18//14 14//14 13//14 
f 16//15 21//15 19//15 17//15 
f 16//16 15//16 9//16 21//16 
f 9//17 12//17 22//17 21//17 
f 22//18 22//18 21//18 
f 16//19 21//19 21//19 
f 15//20 10//20 9//20 
f 12//21 14//21 20//21 22//21 
f 22//18 20//18 19//18 21//18 
f 20//12 23//12 20//12 
f 22//18 24//18 22//18 
f 24//22 22//22 20//22 23//22 
f 23//23 20//23 22//23 24//23 
f 19//12 25//12 19//12 
f 25//24 19//24 21//24 26//24 
f 21//19 26//19 21//19 
f 26//25 21//25 19//25 25//25 
f 25//26 23//26 24//26 26//26 
f 24//27 22//27 21//27 26//27 
f 19//28 20//28 23//28 25//28 
# 18 polygons - 10 triangles

